<?xml version="1.0"?>
<svg version="1.1" xmlns="http://www.w3.org/2000/svg" width="170px" height="100px" style=""><path fill="#0090f7" d="M52.6728515625,62.0166015625q-0.6513671875-0.5166015625,0-1.123046875q0.26953125-0.134765625,0.93212890625-0.2021484375t1.42626953125-0.08984375t1.44873046875-0.0224609375l0.97705078125,0q0-0.5615234375-0.044921875-1.20166015625t-0.044921875-1.29150390625q0-1.1005859375,0.3818359375-1.9765625t1.7294921875-0.8759765625q0.5166015625,0,1.11181640625,0.14599609375t0.81982421875,0.72998046875q0.044921875,1.1005859375,0.0673828125,2.23486328125t0.0224609375,2.23486328125q0.1796875,0,0.8759765625-0.044921875t1.6171875-0.044921875q0.6064453125,0,1.16796875,0.044921875t1.04443359375,0.134765625t0.7861328125,0.30322265625t0.30322265625,0.48291015625t-0.2470703125,0.46044921875t-0.59521484375,0.28076171875t-0.71875,0.134765625t-0.55029296875,0.044921875l-2.4931640625,0l-0.57275390625,0t-0.57275390625-0.044921875q0,0.44921875,0.044921875,1.4375t0.044921875,2.06640625q0,1.3251953125-0.134765625,2.201171875t-0.6513671875,0.8759765625l-0.044921875,0q-0.6064453125,0.314453125-1.3701171875,0.314453125q-0.6064453125,0-1.08935546875-0.2021484375t-0.93212890625-0.583984375l-0.044921875-0.494140625l0.044921875-5.615234375l-0.8984375,0t-1.42626953125-0.0224609375t-1.44873046875-0.08984375t-0.9658203125-0.2021484375z M60.8486328125,68.912109375l0.2919921875-0.08984375z"/><path fill="#101112" d="M75.19970703125,66.4150390625q-0.01904296875-0.5712890625-0.01904296875-1.142578125q0-1.7900390625,0.1904296875-3.59912109375q0.228515625-2.3994140625,0.3046875-4.72265625q0.076171875-2.72314453125,0.228515625-5.65576171875q0.09521484375-1.599609375,0.09521484375-3.1611328125q0-1.27587890625-0.05712890625-2.53271484375q0.1904296875-0.43798828125,0.504638671875-0.59033203125t0.790283203125-0.15234375q0.228515625,0,0.485595703125,0.0380859375t0.447509765625,0.1904296875q0.2666015625,0.0380859375,0.656982421875,0.076171875t0.599853515625,0.228515625q0.076171875,0.1142578125,0.390380859375,0.78076171875t0.74267578125,1.61865234375t0.89501953125,2.066162109375t0.89501953125,2.11376953125t0.74267578125,1.761474609375t0.390380859375,0.9521484375q1.7900390625-3.2373046875,3.50390625-6.655517578125t3.75146484375-6.446044921875q0.1904296875-0.2666015625,0.656982421875-0.390380859375t0.771240234375-0.123779296875q0.81884765625,0,1.190185546875,0.390380859375t0.485595703125,0.999755859375q0.076171875,0.380859375,0.09521484375,0.81884765625q0.01904296875,0.228515625-0.01904296875,0.47607421875q-0.076171875,0.70458984375-0.076171875,1.3330078125q0,4.43701171875-0.3046875,8.807373046875t-0.55224609375,8.826416015625q-0.0380859375,0.9140625-0.0380859375,1.904296875t0.0380859375,2.056640625q0.01904296875,0.380859375,0.01904296875,0.74267578125q0,1.67578125-0.28564453125,3.123046875q-0.2666015625,0.43798828125-0.8759765625,0.55224609375t-1.0283203125,0.1142578125q-0.89501953125,0-1.7138671875-0.4189453125l-0.20947265625-0.24755859375l-0.076171875-0.3046875t-0.0380859375-0.3046875q0-2.76123046875,0.199951171875-5.560546875t0.447509765625-5.589111328125t0.523681640625-5.570068359375t0.466552734375-5.560546875q-1.12353515625,1.8662109375-2.180419921875,3.799072265625t-1.989990234375,3.932373046875q-0.3427734375,0.78076171875-0.656982421875,1.67578125t-0.752197265625,1.599609375q-0.228515625,0.3427734375-0.771240234375,0.4189453125t-0.942626953125,0.076171875q-0.380859375,0-0.790283203125-0.13330078125t-0.561767578125-0.5712890625q-0.70458984375-2.15185546875-1.50439453125-4.20849609375t-1.61865234375-4.17041015625q0,1.4091796875,0.05712890625,3.646728515625t0.05712890625,4.636962890625t-0.076171875,4.58935546875t-0.36181640625,3.4658203125q-0.076171875,0.47607421875-0.618896484375,0.59033203125t-0.942626953125,0.1142578125q-0.3046875,0-0.580810546875-0.0380859375t-0.542724609375-0.15234375z M97.816469726562,63.177734375q0-1.3330078125,0.295166015625-3.14208984375t0.999755859375-3.427734375t1.856689453125-2.751708984375t2.904052734375-1.133056640625q1.6376953125,0,2.45654296875,0.942626953125t0.81884765625,2.542236328125q0,1.04736328125-0.390380859375,2.294677734375t-1.114013671875,2.361328125t-1.7138671875,1.856689453125t-2.208984375,0.74267578125l-0.4951171875-0.0380859375q0,0.51416015625,0.15234375,1.380615234375t0.447509765625,1.723388671875t0.76171875,1.50439453125t1.133056640625,0.6474609375q0.97119140625,0,1.8662109375-0.78076171875t1.69482421875-1.73291015625t1.4853515625-1.73291015625t1.2568359375-0.78076171875q0.3046875,0,0.62841796875,0.09521484375t0.36181640625,0.533203125q0,0.2666015625-0.142822265625,0.43798828125t-0.257080078125,0.380859375q-0.59033203125,1.00927734375-1.285400390625,1.92333984375t-1.571044921875,1.65673828125t-1.913818359375,1.171142578125t-2.294677734375,0.428466796875q-1.6376953125,0-2.72314453125-0.580810546875t-1.751953125-1.5615234375t-0.961669921875-2.26611328125t-0.295166015625-2.694580078125z M101.22516113281,61.73046875l0.533203125,0.47607421875q0.380859375,0.3427734375,0.76171875,0.15234375t0.685546875-0.695068359375t0.561767578125-1.247314453125t0.45703125-1.5234375t0.295166015625-1.5234375t0.09521484375-1.23779296875l0-0.6474609375t-0.05712890625-0.685546875t-0.199951171875-0.542724609375t-0.447509765625-0.276123046875q-0.09521484375-0.01904296875-0.17138671875-0.01904296875q-0.6474609375,0-1.1044921875,0.81884765625q-0.4951171875,0.9140625-0.7998046875,2.218505859375t-0.43798828125,2.675537109375t-0.17138671875,2.056640625z M113.73010742188,62.16845703125q0-1.4853515625,0.314208984375-2.694580078125t0.999755859375-2.047119140625t1.799560546875-1.304443359375t2.713623046875-0.466552734375q0.89501953125,0,1.828125,0.238037109375t1.599609375,0.885498046875q0-0.380859375,0.076171875-1.571044921875t0.1904296875-2.770751953125t0.238037109375-3.3134765625t0.218994140625-3.21826171875t0.17138671875-2.49462890625t0.1142578125-1.142578125q0.1904296875-0.55224609375,0.70458984375-0.656982421875t0.97119140625-0.104736328125q1.19970703125,0,1.475830078125,0.380859375t0.276123046875,1.5234375q0,4.17041015625-0.371337890625,8.302734375t-0.371337890625,8.302734375q0,2.68505859375,0.104736328125,5.398681640625t0.752197265625,5.341552734375l0.20947265625,0.1904296875l0.1142578125,0.3427734375l-0.28564453125,0.43798828125q-0.7236328125,0.45703125-1.67578125,0.45703125l-0.076171875,0q-0.97119140625,0-1.7900390625-0.45703125q-0.3046875-0.1904296875-0.504638671875-1.133056640625t-0.314208984375-2.07568359375t-0.17138671875-2.180419921875t-0.09521484375-1.4853515625q-0.66650390625,1.5234375-1.818603515625,2.618408203125t-2.904052734375,1.094970703125q-1.37109375,0-2.2470703125-0.59033203125t-1.361572265625-1.50439453125t-0.685546875-2.047119140625t-0.199951171875-2.256591796875z M116.03430664063,62.28271484375q0,0.43798828125,0.104736328125,1.294921875t0.333251953125,1.7138671875t0.637939453125,1.5234375t1.075927734375,0.66650390625q0.89501953125-0.43798828125,1.61865234375-1.456787109375t1.247314453125-2.2470703125t0.81884765625-2.45654296875t0.295166015625-2.123291015625q0-1.12353515625-0.81884765625-1.8662109375t-1.96142578125-0.74267578125q-0.3427734375,0-0.695068359375,0.13330078125t-0.656982421875,0.3046875q-0.70458984375,0.66650390625-1.094970703125,1.209228515625t-0.59033203125,1.12353515625t-0.257080078125,1.285400390625t-0.05712890625,1.6376953125z M131.75751464844,61.93994140625q0-1.751953125,0.409423828125-3.437255859375t0.695068359375-3.361083984375q0.076171875-0.43798828125,0.599853515625-0.542724609375t0.885498046875-0.104736328125q0.62841796875,0,1.00927734375,0.1904296875q0.15234375,0.076171875,0.28564453125,0.17138671875t0.13330078125,0.24755859375q0,1.6376953125-0.390380859375,3.19921875t-0.390380859375,3.3134765625q0,0.59033203125,0.085693359375,1.114013671875t0.161865234375,1.037841796875l0.1142578125,0.55224609375q0,0.15234375,0.01904296875,0.2666015625t0.05712890625,0.2666015625q0,0.3427734375-0.485595703125,0.466552734375t-0.847412109375,0.123779296875q-0.55224609375,0-1.018798828125-0.218994140625t-0.733154296875-0.752197265625l-0.2666015625-0.55224609375q-0.228515625-0.43798828125-0.228515625-0.980712890625t-0.09521484375-0.999755859375z M132.97626464844,50.47607421875l0-0.36181640625q0-0.89501953125,0.447509765625-1.599609375t1.342529296875-0.70458984375q0.1142578125,0,0.218994140625,0.01904296875t0.218994140625,0.01904296875q0.228515625,0.0380859375,0.599853515625,0.180908203125t0.371337890625,0.447509765625l0,0.0380859375q-0.076171875,0.15234375-0.09521484375,0.314208984375t-0.09521484375,0.276123046875l0.0380859375-0.0380859375q-0.228515625,0.59033203125-0.371337890625,0.9521484375t-0.314208984375,0.580810546875t-0.428466796875,0.314208984375t-0.733154296875,0.09521484375q-0.076171875,0-0.2666015625-0.01904296875t-0.409423828125-0.076171875t-0.371337890625-0.15234375t-0.15234375-0.28564453125z M140.0730078125,62.01611328125q0-1.37109375,0.352294921875-2.751708984375t1.094970703125-2.4755859375t1.894775390625-1.780517578125t2.713623046875-0.685546875q0.66650390625,0,1.46630859375,0.161865234375t1.475830078125,0.51416015625t1.142578125,0.9140625t0.466552734375,1.380615234375q0,0.51416015625-0.2666015625,0.685546875t-0.70458984375,0.17138671875l-0.13330078125-0.1904296875t-0.371337890625-0.485595703125t-0.504638671875-0.62841796875t-0.51416015625-0.561767578125q-0.78076171875-0.78076171875-1.46630859375-0.837890625l-0.15234375,0q-0.5712890625,0-1.06640625,0.3427734375q-0.55224609375,0.4189453125-0.980712890625,1.1806640625t-0.714111328125,1.61865234375t-0.447509765625,1.73291015625t-0.161865234375,1.447265625q0,0.78076171875,0.180908203125,1.780517578125t0.609375,1.894775390625t1.08544921875,1.50439453125t1.685302734375,0.609375q0.93310546875,0,1.69482421875-0.45703125t1.456787109375-1.018798828125t1.361572265625-1.00927734375t1.37109375-0.447509765625q0.3046875,0,0.618896484375,0.076171875t0.314208984375,0.39990234375l0,0.1142578125q-0.3427734375,0.89501953125-1.16162109375,1.58056640625t-1.837646484375,1.190185546875t-2.11376953125,0.752197265625t-1.951904296875,0.24755859375q-1.599609375,0-2.808837890625-0.523681640625t-2.009033203125-1.437744140625t-1.209228515625-2.199462890625t-0.409423828125-2.808837890625z M156.31037597656,62.7587890625q0-1.08544921875,0.276123046875-2.237548828125t0.8759765625-2.07568359375t1.513916015625-1.50439453125t2.208984375-0.580810546875q0.97119140625,0,2.047119140625,0.333251953125t1.970947265625,0.9521484375t1.456787109375,1.513916015625t0.561767578125,1.99951171875q0,1.3330078125-0.485595703125,2.53271484375t-1.361572265625,2.142333984375t-2.047119140625,1.4853515625t-2.542236328125,0.542724609375q-1.12353515625,0-1.96142578125-0.409423828125t-1.399658203125-1.094970703125t-0.837890625-1.61865234375t-0.276123046875-1.98046875z M159.10969238281,62.720703125q0,0.3427734375,0.104736328125,1.00927734375t0.314208984375,1.304443359375t0.542724609375,1.1044921875t0.809326171875,0.428466796875q1.00927734375-0.1142578125,1.666259765625-0.656982421875t1.06640625-1.323486328125t0.5712890625-1.69482421875t0.161865234375-1.73291015625q0-1.04736328125-0.409423828125-1.751953125t-1.342529296875-1.142578125q0,0.0380859375,0.0380859375,0.0380859375t0.0380859375-0.0380859375l-0.47607421875-0.1142578125q-0.1904296875-0.076171875-0.466552734375-0.17138671875t-0.542724609375-0.4189453125q-0.74267578125,0.2666015625-1.152099609375,0.685546875t-0.618896484375,1.018798828125t-0.257080078125,1.437744140625t-0.047607421875,2.0185546875z"/></svg>
